<svg xmlns="http://www.w3.org/2000/svg" xmlns:xlink="http://www.w3.org/1999/xlink" viewBox="0 0 599.903 160.3">
    <g>
        <path d=" M 118.6 109.5 C 116.2 110.2 114.4 110.5 111.9 110.5 C 91.7 110.5 62.1 40 62.1 16.6 C 62.1 8 64.1 5.1 67.1 2.6 C 42.4 5.3 12.7 14.5 3.2 25.9 C 1.2 28.8 0 33.3 0 39.1 C 0 75.8 39.1 158.9 66.6 158.9 C 79.4 158.9 100.9 137.9 118.6 109.5 Z  M 105.8 0 C 131.3 0 156.8 4.1 156.8 18.5 C 156.8 47.7 138.2 83.1 128.9 83.1 C 112.1 83.1 91 36.2 91 12.7 C 90.9 2.1 95 0 105.8 0 Z " fill="rgb(255,135,0)"/>
        <path d=" M 242.4 51.8 L 242.4 159.1 L 227.4 159.1 L 227.4 51.8 L 200.8 51.8 L 200.8 38.8 L 268.7 38.8 L 268.7 51.9 L 242.4 51.8 L 242.4 51.8 Z  M 321.1 103.2 L 321.1 159.1 L 305.6 159.1 L 305.6 103.2 L 274.8 38.7 L 291.3 38.7 L 314 88.7 L 336.7 38.7 L 352.3 38.7 L 321.1 103.2 Z  M 399.8 113.6 L 385.3 113.6 L 385.3 159 L 370.3 159 L 370.3 38.8 C 370.3 38.8 385 37.6 399.4 37.6 C 425.5 37.6 433.1 53.8 433.1 74.9 C 433.1 100.9 424.2 113.6 399.8 113.6 L 399.8 113.6 Z  M 401.6 49.9 C 392.1 49.9 385.4 50.9 385.4 50.9 L 385.4 101.1 L 401.6 101.1 C 411.2 101.1 417.9 94.7 417.9 76 C 417.8 58.9 413.7 49.9 401.6 49.9 Z  M 488.9 160.3 C 460.6 160.3 453 139.7 453 97.5 C 453 57.1 460.6 37.5 488.9 37.5 C 517.2 37.5 524.8 57.1 524.8 97.5 C 524.8 139.6 517.2 160.3 488.9 160.3 Z  M 488.9 50 C 473.4 50 468.3 60.5 468.3 98.3 C 468.3 135.2 473.4 147.6 488.9 147.6 C 504.4 147.6 509.5 135.2 509.5 98.3 C 509.5 60.6 504.4 50 488.9 50 Z  M 571 160.3 C 562.6 160.3 550 157.7 548.4 157.4 L 548.4 144.5 C 552.5 145.4 563.2 147.2 570.7 147.2 C 579.4 147.2 585.2 140 585.2 126.7 C 585.2 110.7 582.6 102.7 570.4 102.7 L 556.4 102.7 L 556.4 90.1 L 568.8 90.1 C 582.8 90.1 583.4 75.9 583.4 69 C 583.4 55.4 579.2 49.9 570.5 49.9 C 562.9 49.9 554.3 51.8 549.3 52.8 L 549.3 40.2 C 551.2 39.8 561.3 37.3 570.1 37.3 C 587.8 37.3 597.9 44.9 597.9 70.5 C 597.9 82.2 594.3 92.5 584.8 95.5 C 596 97 599.9 108.1 599.9 124.9 C 600.1 150.7 590.1 160.3 571 160.3 Z " fill="rgb(0,0,0)"/>
    </g>
</svg>