<svg version="1.1" id="Ebene_1" xmlns="http://www.w3.org/2000/svg" xmlns:xlink="http://www.w3.org/1999/xlink" x="0px" y="0px"
	 viewBox="0 0 286.881 76.416" enable-background="new 0 0 286.881 76.416" xml:space="preserve">
<g id="Logo" transform="translate(-207 -21.502)">
	<g>
		<polygon fill="#FFFFFF" points="252.657,63.071 271.495,63.071 271.495,86.052 275.643,86.052 275.643,63.073 294.463,63.073 
			294.463,58.921 252.657,58.921 		"/>
		<path fill="#FFFFFF" d="M293.282,66.912h-12.676c-0.652,0.002-1.18,0.53-1.181,1.182V84.87c0.002,0.651,0.53,1.179,1.181,1.18
			h12.676c0.652-0.001,1.18-0.528,1.181-1.18v-9.043c0-0.652-0.529-1.181-1.181-1.182h-5.532v3.517h2.565V80
			c0,1.8-0.1,1.9-1.834,1.9h-2.963c-1.86,0-2.027-0.479-2.027-1.848v-7.6c0-1.158,0.259-1.393,1.54-1.393v0.002h9.433v-2.967
			C294.464,67.441,293.934,66.912,293.282,66.912z"/>
		<polygon fill="#FFFFFF" points="263.567,78.975 260.187,73.428 256.807,78.975 256.807,66.912 252.657,66.912 252.657,86.051 
			256.874,86.051 260.187,80.612 263.498,86.054 267.715,86.054 267.715,66.912 263.567,66.912 		"/>
		<path fill="#FFFFFF" d="M273.559,22.49l-65.556,74.426h131.11h0.001L273.559,22.49z M219.666,91.645l53.893-61.184l53.892,61.184
			H219.666z"/>
	</g>
	<g>
		<path fill="#FFFFFF" d="M412.073,80.79l-1.116-0.174c-0.376-0.03-0.732-0.177-1.02-0.42c-0.24-0.221-0.365-0.539-0.341-0.864
			c0-0.896,0.647-1.452,1.688-1.452c0.755-0.052,1.499,0.208,2.058,0.719l0.885-0.891c-0.773-0.742-1.822-1.127-2.891-1.06
			c-1.89,0-3.112,1.068-3.111,2.719c-0.041,0.672,0.212,1.328,0.692,1.8c0.492,0.423,1.104,0.684,1.75,0.746l1.11,0.15
			c0.372,0.027,0.727,0.166,1.018,0.4c0.263,0.25,0.397,0.607,0.364,0.968c0,0.913-0.701,1.437-1.922,1.437
			c-0.892,0.054-1.764-0.273-2.4-0.9l-0.926,0.926c0.865,0.871,2.069,1.32,3.293,1.228c2.036,0,3.351-1.072,3.35-2.73
			c0.035-0.717-0.242-1.414-0.759-1.912C413.308,81.074,412.705,80.833,412.073,80.79z"/>
		<path fill="#FFFFFF" d="M439.426,84.857c-0.517,0.015-1.016-0.194-1.367-0.574c-0.464-0.479-0.571-1.025-0.571-2.9
			s0.107-2.418,0.571-2.9c0.351-0.381,0.849-0.592,1.367-0.578c0.945-0.022,1.757,0.669,1.885,1.606h1.436
			c-0.185-1.679-1.636-2.93-3.324-2.866c-0.896-0.029-1.763,0.312-2.4,0.943c-0.9,0.921-0.938,1.83-0.938,3.8
			c0,1.97,0.038,2.88,0.938,3.795c0.637,0.63,1.505,0.97,2.4,0.939c1.692,0.066,3.146-1.189,3.327-2.873h-1.415
			C441.198,84.191,440.377,84.882,439.426,84.857z"/>
		<polygon fill="#FFFFFF" points="446.859,86.047 452.809,86.047 452.811,86.047 452.811,84.777 448.27,84.777 448.27,81.977 
			452.138,81.977 452.138,80.723 448.27,80.723 448.27,77.995 452.811,77.995 452.811,76.735 446.859,76.735 		"/>
		<polygon fill="#FFFFFF" points="420.089,76.735 418.678,76.735 418.678,86.047 420.091,86.047 420.089,86.046 		"/>
		<polygon fill="#FFFFFF" points="430.354,83.276 426.048,76.735 424.748,76.735 424.748,86.048 426.159,86.048 426.159,86.047 
			426.159,79.491 430.464,86.046 431.764,86.046 431.764,76.735 430.354,76.735 		"/>
		<polygon fill="#FFFFFF" points="479.042,78.301 479.042,79.781 480.86,78.181 480.86,86.048 482.193,86.048 482.193,86.046 
			482.193,76.735 480.86,76.735 		"/>
		<path fill="#FFFFFF" d="M491.556,81.226c0.761-0.36,1.222-1.151,1.16-1.991c0.002-0.076,0.001-0.152-0.004-0.228
			c-0.089-1.399-1.296-2.461-2.696-2.372c-0.043-0.003-0.086-0.004-0.129-0.005c-1.424-0.015-2.59,1.127-2.605,2.551h1.332
			c0-0.011,0.001-0.022,0.001-0.033c0.037-0.766,0.688-1.358,1.454-1.321c0.766,0.037,1.358,0.688,1.321,1.454
			c0.011,0.097,0.011,0.196,0,0.293c-0.081,0.7-0.714,1.201-1.413,1.12h-0.226v1.163h0.226c0.106-0.013,0.214-0.014,0.321-0.003
			c0.765,0.082,1.318,0.769,1.236,1.534c0.004,0.056,0.004,0.112,0.002,0.168c-0.039,0.8-0.719,1.418-1.52,1.379
			c-0.049,0.004-0.098,0.006-0.148,0.005c-0.773-0.013-1.389-0.65-1.376-1.423h-1.329c-0.014,0.763,0.31,1.492,0.885,1.993
			c0.564,0.431,1.259,0.652,1.968,0.625c0.123,0.012,0.247,0.015,0.371,0.009c1.434-0.067,2.543-1.284,2.476-2.718
			C492.942,82.488,492.417,81.604,491.556,81.226z"/>
		<path fill="#FFFFFF" d="M471.958,76.648c-0.103-0.004-0.205-0.003-0.308,0.005c-1.458,0.109-2.552,1.38-2.442,2.839
			c-0.005,0.054-0.007,0.107-0.008,0.161c-0.027,1.375,1.065,2.511,2.44,2.539c0.287,0.007,0.573-0.042,0.841-0.145l-2,4h1.43
			v-0.001l2.11-4.323c0.409-0.697,0.649-1.481,0.7-2.288c0.029-0.757-0.251-1.494-0.776-2.04
			C473.408,76.891,472.693,76.622,471.958,76.648z M473.393,79.464c0.015,0.118,0.015,0.237,0,0.354
			c-0.098,0.785-0.814,1.343-1.599,1.245c-0.785-0.098-1.343-0.814-1.245-1.599c-0.006-0.051-0.01-0.102-0.011-0.153
			c-0.014-0.8,0.623-1.459,1.423-1.473l-0.003-0.003c0.054,0,0.108,0.004,0.162,0.01C472.918,77.941,473.488,78.665,473.393,79.464z
			"/>
		<polygon fill="#FFFFFF" points="464.059,76.735 462.725,76.735 460.911,78.301 460.911,79.778 462.725,78.181 462.725,86.047 
			464.061,86.047 464.059,86.046 		"/>
		<path fill="#FFFFFF" d="M345.403,58.16l-1.643-0.248c-0.462-0.038-0.9-0.221-1.252-0.523c-0.265-0.256-0.406-0.616-0.386-0.984
			c0-0.946,0.674-1.74,2.1-1.74c1.029-0.081,2.046,0.261,2.817,0.947l1.7-1.679c-1.193-1.128-2.802-1.708-4.44-1.6
			c-2.97,0-4.785,1.721-4.785,4.175c-0.06,0.997,0.297,1.975,0.985,2.7c0.739,0.659,1.673,1.058,2.66,1.138l1.643,0.252
			c0.453,0.006,0.889,0.17,1.234,0.463c0.29,0.306,0.443,0.717,0.423,1.138c0,1.101-0.849,1.717-2.449,1.717
			c-1.211,0.076-2.401-0.341-3.3-1.156l-1.736,1.735c1.333,1.3,3.162,1.962,5.018,1.815v0.001c2.893,0,5.093-1.505,5.093-4.168
			c0.079-1.074-0.308-2.13-1.061-2.9C347.294,58.602,346.372,58.221,345.403,58.16z"/>
		<polygon fill="#FFFFFF" points="358.806,59.881 355.218,52.449 352.573,52.449 352.573,66.194 355.255,66.194 355.255,58.183 
			357.901,63.393 359.714,63.393 362.337,58.183 362.337,66.194 365.015,66.194 365.015,52.449 362.373,52.449 		"/>
		<path fill="#FFFFFF"  d="M372.683,52.449l-5,13.746h2.8l0.828-2.433h4.879l0.813,2.431h2.796l-5.016-13.744H372.683z
			 M372.063,61.506l1.737-5l1.678,5H372.063z"/>
		<path fill="#FFFFFF"  d="M392.301,56.658c0.018-1.106-0.407-2.174-1.18-2.966c-0.881-0.84-2.064-1.288-3.28-1.243h-5.381v13.747
			h2.681v-0.001v-5.482h1.93l2.689,5.48h3.1l-3.066-5.926C391.329,59.743,392.345,58.28,392.301,56.658z M389.61,56.86
			c-0.091,0.981-0.96,1.703-1.941,1.612h-2.529v-3.627l2.529,0.004c0.065-0.006,0.131-0.008,0.197-0.007
			c0.985,0.018,1.769,0.831,1.751,1.816C389.619,56.725,389.617,56.793,389.61,56.86z"/>
		<polygon fill="#FFFFFF"  points="394.73,54.848 398.322,54.848 398.322,66.193 401.003,66.193 401.003,54.848 404.59,54.848 
			404.59,52.448 394.73,52.448 		"/>
		<rect fill="#FFFFFF"  x="408.321" y="63.333" width="2.875" height="2.862"/>
		<path fill="#FFFFFF"  d="M427.163,62.143c0.078-1.074-0.308-2.13-1.062-2.9c-0.729-0.642-1.651-1.023-2.621-1.083l-1.643-0.248
			c-0.461-0.038-0.899-0.221-1.25-0.523c-0.267-0.256-0.408-0.615-0.387-0.984c0-0.946,0.671-1.74,2.1-1.74
			c1.028-0.081,2.045,0.261,2.816,0.947l1.7-1.679c-1.193-1.129-2.802-1.709-4.441-1.6c-2.97,0-4.783,1.721-4.783,4.174
			c-0.06,0.997,0.296,1.975,0.984,2.7c0.74,0.659,1.675,1.059,2.663,1.139l1.643,0.252c0.453,0.005,0.891,0.169,1.236,0.463
			c0.291,0.306,0.444,0.717,0.424,1.138c0,1.101-0.854,1.717-2.454,1.717c-1.211,0.077-2.401-0.34-3.3-1.156l-1.736,1.735
			c1.332,1.301,3.162,1.962,5.018,1.815v0.001C424.963,66.311,427.163,64.806,427.163,62.143z"/>
		<polygon fill="#FFFFFF" points="439.702,63.802 433.335,63.802 433.335,60.467 438.753,60.467 438.753,58.067 433.335,58.067 
			433.335,54.849 439.702,54.849 439.702,52.449 430.653,52.449 430.653,66.194 439.702,66.202 		"/>
		<path fill="#FFFFFF" d="M447.896,54.727c1.154-0.038,2.149,0.806,2.3,1.951h2.74c-0.259-2.555-2.47-4.462-5.035-4.345
			c-1.376-0.049-2.71,0.475-3.684,1.447c-1.371,1.373-1.392,2.924-1.392,5.545c0,2.621,0.021,4.166,1.392,5.536
			c0.974,0.973,2.308,1.498,3.684,1.449c2.564,0.112,4.772-1.794,5.035-4.347h-2.723c-0.158,1.148-1.159,1.991-2.317,1.952
			c-0.65,0.027-1.278-0.235-1.716-0.716c-0.503-0.575-0.675-1.248-0.675-3.875s0.175-3.301,0.675-3.883
			C446.619,54.963,447.246,54.702,447.896,54.727z"/>
		<path fill="#FFFFFF"  d="M463.452,61.385c0.013,0.119,0.016,0.238,0.01,0.358c-0.063,1.263-1.138,2.235-2.401,2.171
			c-0.124,0.006-0.247,0.002-0.37-0.012c-1.248-0.142-2.146-1.269-2.004-2.517v-8.937h-2.686v9.036
			c-0.001,0.11,0.001,0.22,0.008,0.33c0.154,2.636,2.415,4.648,5.051,4.495l0.001,0.001c0.111,0.006,0.222,0.009,0.333,0.008
			c2.638-0.031,4.751-2.196,4.72-4.834v-9.036h-2.662V61.385z"/>
		<path fill="#FFFFFF" d="M477.403,60.267c1.536-0.523,2.552-1.987,2.505-3.609c0.018-1.106-0.406-2.174-1.179-2.966
			c-0.879-0.839-2.06-1.288-3.274-1.243h-5.386v13.747h2.684v-0.001v-5.482h1.928l2.681,5.48h3.107L477.403,60.267z M477.223,56.861
			c-0.092,0.982-0.963,1.703-1.945,1.611h-2.525v-3.627l2.525,0.004c0.066-0.006,0.132-0.009,0.198-0.008
			c0.986,0.017,1.772,0.83,1.755,1.817C477.232,56.726,477.229,56.793,477.223,56.861z"/>
		<polygon fill="#FFFFFF"  points="492.699,63.794 486.335,63.794 486.335,60.46 491.756,60.46 491.756,58.066 486.335,58.066 
			486.335,54.849 492.699,54.849 492.699,52.449 483.649,52.449 483.649,66.194 492.699,66.194 		"/>
	</g>
</g>
</svg>
